<svg xmlns="http://www.w3.org/2000/svg" width="65" height="65" viewBox="0 0 50 50" version="1.1"><path d="M 5.452 1.264 C 5.174 1.988, 5.071 9.762, 5.224 18.540 L 5.500 34.500 15.486 34.500 C 24.202 34.500, 25.515 34.277, 25.810 32.750 C 26.043 31.538, 25.510 31, 24.073 31 C 22.667 31, 22 30.357, 22 29 C 22 27.667, 22.667 27, 24 27 C 25.100 27, 26 26.550, 26 26 C 26 25.450, 25.100 25, 24 25 C 22.667 25, 22 24.333, 22 23 C 22 21.667, 22.667 21, 24 21 C 25.100 21, 26 20.550, 26 20 C 26 19.450, 25.100 19, 24 19 C 22.667 19, 22 18.333, 22 17 C 22 15.667, 22.667 15, 24 15 C 25.152 15, 26 15.667, 26 16.571 C 26 18, 26.143 18, 27.571 16.571 C 28.436 15.707, 29.529 15, 30 15 C 31.514 15, 34 18.085, 34 19.964 C 34 20.966, 34.690 22.051, 35.533 22.374 C 36.863 22.885, 37.028 21.482, 36.783 11.731 L 36.500 0.500 21.229 0.224 C 9.325 0.009, 5.846 0.238, 5.452 1.264 M 10 8 L 10 12 21 12 L 32 12 32 8 L 32 4 21 4 L 10 4 10 8 M 20 8 C 20 8.550, 20.450 9, 21 9 C 21.550 9, 22 8.550, 22 8 C 22 7.450, 21.550 7, 21 7 C 20.450 7, 20 7.450, 20 8 M 24 8 C 24 8.550, 24.450 9, 25 9 C 25.550 9, 26 8.550, 26 8 C 26 7.450, 25.550 7, 25 7 C 24.450 7, 24 7.450, 24 8 M 28 8 C 28 8.550, 28.450 9, 29 9 C 29.550 9, 30 8.550, 30 8 C 30 7.450, 29.550 7, 29 7 C 28.450 7, 28 7.450, 28 8 M 10 17 C 10 18.333, 10.667 19, 12 19 C 13.333 19, 14 18.333, 14 17 C 14 15.667, 13.333 15, 12 15 C 10.667 15, 10 15.667, 10 17 M 16 17 C 16 18.333, 16.667 19, 18 19 C 19.333 19, 20 18.333, 20 17 C 20 15.667, 19.333 15, 18 15 C 16.667 15, 16 15.667, 16 17 M 28 25.071 C 28 30.913, 27.586 33.557, 26.500 34.643 C 24.028 37.114, 24.690 41.577, 28.104 45.465 C 31.005 48.769, 31.596 49, 37.169 49 C 46.768 49, 47 48.704, 47 36.465 C 47 26.792, 46.854 26, 45.070 26 C 43.863 26, 42.977 26.843, 42.706 28.250 C 42.334 30.179, 42.253 30.108, 42.136 27.750 C 42.037 25.745, 41.476 25, 40.066 25 C 38.725 25, 38.005 25.842, 37.716 27.750 C 37.329 30.310, 37.289 30.275, 37.150 27.250 C 37.035 24.754, 36.551 24, 35.063 24 C 33.628 24, 33.022 24.841, 32.723 27.250 C 32.502 29.038, 32.248 27.462, 32.160 23.750 C 32.017 17.720, 31.787 17, 30 17 C 28.165 17, 28 17.667, 28 25.071 M 10 23 C 10 24.333, 10.667 25, 12 25 C 13.333 25, 14 24.333, 14 23 C 14 21.667, 13.333 21, 12 21 C 10.667 21, 10 21.667, 10 23 M 16 23 C 16 24.333, 16.667 25, 18 25 C 19.333 25, 20 24.333, 20 23 C 20 21.667, 19.333 21, 18 21 C 16.667 21, 16 21.667, 16 23 M 10 29 C 10 30.333, 10.667 31, 12 31 C 13.333 31, 14 30.333, 14 29 C 14 27.667, 13.333 27, 12 27 C 10.667 27, 10 27.667, 10 29 M 16 29 C 16 30.333, 16.667 31, 18 31 C 19.333 31, 20 30.333, 20 29 C 20 27.667, 19.333 27, 18 27 C 16.667 27, 16 27.667, 16 29" stroke="none" fill="#fffcfc" fill-rule="evenodd"/><path d="" stroke="none" fill="#fcfcfc" fill-rule="evenodd"/></svg>